<?xml version="1.0" encoding="UTF-8"?>
<svg id="Calque_1" data-name="Calque 1" xmlns="http://www.w3.org/2000/svg" viewBox="0 0 520 127.42">
  <defs>
    <style>
      .cls-1 {
        fill: #68191e;
      }
    </style>
  </defs>
  <g>
    <path class="cls-1" d="M74.82,84.79h-1.35l-5.86,12.84h1.41l1.54-3.43h7.16l1.54,3.43h1.43l-5.86-12.84ZM71.05,93.1l3.09-6.91,3.09,6.91h-6.18Z"/>
    <polygon class="cls-1" points="85.55 85.96 85.55 91 92.19 91 92.19 92.17 85.55 92.17 85.55 97.63 84.19 97.63 84.19 84.79 92.99 84.79 92.99 85.96 85.55 85.96"/>
    <path class="cls-1" d="M104.28,93.22c.18-.05.34-.12.5-.19.78-.35,1.39-.84,1.81-1.51.42-.65.63-1.43.63-2.33,0-1.39-.46-2.46-1.4-3.24-.94-.79-2.22-1.17-3.84-1.17h-4.82v12.84h1.36v-4.08h3.46c.35,0,.71-.01,1.02-.05l2.94,4.14h1.48l-3.14-4.41ZM101.94,92.39h-3.41v-6.43h3.41c1.28,0,2.26.29,2.92.84.67.57.99,1.36.99,2.39s-.33,1.8-.99,2.35c-.67.57-1.65.84-2.92.84Z"/>
    <path class="cls-1" d="M117.42,97.74c-.97,0-1.86-.16-2.69-.49-.82-.32-1.54-.78-2.15-1.38-.61-.59-1.08-1.28-1.41-2.07-.34-.79-.5-1.65-.5-2.6s.17-1.81.5-2.6c.34-.79.81-1.48,1.41-2.07.6-.59,1.32-1.05,2.14-1.38s1.72-.49,2.7-.49,1.86.16,2.68.49c.82.32,1.53.78,2.14,1.37.61.59,1.08,1.28,1.41,2.07s.5,1.66.5,2.6-.17,1.81-.5,2.6-.81,1.49-1.41,2.07c-.6.59-1.32,1.04-2.14,1.37-.82.32-1.71.49-2.68.49ZM117.42,96.53c.77,0,1.48-.13,2.14-.39.65-.26,1.22-.64,1.71-1.12.48-.48.86-1.05,1.13-1.69.27-.64.4-1.35.4-2.12s-.13-1.48-.4-2.12c-.27-.64-.65-1.2-1.13-1.69-.48-.48-1.05-.86-1.71-1.12-.65-.26-1.37-.39-2.14-.39s-1.49.13-2.15.39-1.23.64-1.71,1.12c-.48.48-.86,1.05-1.14,1.69-.28.64-.41,1.35-.41,2.12s.14,1.46.41,2.11.65,1.21,1.14,1.7,1.05.86,1.71,1.12,1.38.39,2.15.39Z"/>
    <path class="cls-1" d="M142.86,95.09c.53-.8.9-1.8,1.12-2.97l-1.05-.33c-.18.97-.46,1.8-.86,2.48l-3.52-3.63c.57-.33,1.03-.63,1.41-.91.52-.38.88-.78,1.1-1.18.23-.39.34-.83.34-1.29,0-.54-.12-1.01-.37-1.39-.26-.37-.6-.67-1.05-.87-.45-.19-.97-.3-1.56-.3-.67,0-1.24.12-1.73.34-.49.23-.87.54-1.13.95-.26.41-.39.9-.39,1.44,0,.34.05.67.15.98.1.3.27.63.52.95s.56.69.97,1.12c-.68.38-1.25.76-1.7,1.13-.54.45-.94.9-1.18,1.36-.24.45-.37.95-.37,1.51,0,.65.19,1.21.56,1.7.38.49.88.87,1.54,1.16.65.27,1.39.41,2.22.41,1.05,0,2-.22,2.83-.64.54-.29,1.03-.65,1.46-1.12l1.8,1.85.75-.87-1.84-1.88ZM136.51,88.15c-.08-.23-.12-.48-.12-.73,0-.52.18-.94.53-1.27.35-.31.86-.48,1.51-.48.6,0,1.06.14,1.37.44.33.3.49.68.49,1.16,0,.33-.1.64-.27.92-.19.29-.49.58-.92.9-.33.23-.75.5-1.27.8-.37-.39-.65-.72-.87-.98-.22-.27-.37-.53-.45-.76ZM140.23,96.12c-.67.35-1.43.53-2.29.53-.61,0-1.16-.1-1.63-.29-.46-.19-.83-.45-1.1-.8-.26-.35-.39-.75-.39-1.22,0-.39.1-.76.29-1.1.18-.34.49-.68.94-1.03.38-.3.87-.63,1.47-.98l3.88,3.99c-.33.38-.72.68-1.16.91Z"/>
    <polygon class="cls-1" points="167.91 84.79 167.91 97.63 166.61 97.63 166.61 87.36 161.56 96 160.92 96 155.88 87.41 155.88 97.63 154.58 97.63 154.58 84.79 155.7 84.79 161.26 94.3 166.8 84.79 167.91 84.79"/>
    <path class="cls-1" d="M173.47,97.63v-12.84h1.36v12.84h-1.36Z"/>
    <polygon class="cls-1" points="189.64 97.63 188.06 97.63 183.91 91.98 179.79 97.63 178.24 97.63 183.12 91.03 178.55 84.79 180.1 84.79 183.98 90.04 187.83 84.79 189.3 84.79 184.75 90.99 189.64 97.63"/>
    <polygon class="cls-1" points="202.14 96.45 202.14 97.63 193.05 97.63 193.05 84.79 201.85 84.79 201.85 85.96 194.41 85.96 194.41 90.53 201.05 90.53 201.05 91.68 194.41 91.68 194.41 96.45 202.14 96.45"/>
    <path class="cls-1" d="M206.7,97.63v-12.84h5.23c1.37,0,2.57.27,3.6.82s1.84,1.3,2.41,2.26.86,2.08.86,3.34-.29,2.37-.86,3.34c-.57.97-1.38,1.72-2.41,2.26-1.03.54-2.23.82-3.6.82h-5.23ZM208.06,96.45h3.8c1.14,0,2.12-.22,2.96-.67.84-.45,1.49-1.06,1.95-1.85.46-.79.7-1.7.7-2.72s-.23-1.95-.7-2.73c-.46-.78-1.12-1.4-1.95-1.84-.84-.45-1.83-.67-2.96-.67h-3.8v10.49Z"/>
    <polygon class="cls-1" points="247.03 84.79 242.7 97.63 241.28 97.63 237.51 86.69 233.74 97.63 232.32 97.63 228 84.79 229.39 84.79 233.1 95.85 236.92 84.79 238.17 84.79 241.97 95.9 245.74 84.79 247.03 84.79"/>
    <polygon class="cls-1" points="259.97 96.45 259.97 97.63 250.88 97.63 250.88 84.79 259.69 84.79 259.69 85.96 252.24 85.96 252.24 90.53 258.88 90.53 258.88 91.68 252.24 91.68 252.24 96.45 259.97 96.45"/>
    <path class="cls-1" d="M264.53,97.63v-12.84h5.23c1.37,0,2.57.27,3.6.82s1.84,1.3,2.41,2.26.86,2.08.86,3.34-.29,2.37-.86,3.34c-.57.97-1.38,1.72-2.41,2.26-1.03.54-2.23.82-3.6.82h-5.23ZM265.89,96.45h3.8c1.14,0,2.12-.22,2.96-.67.84-.45,1.49-1.06,1.95-1.85.46-.79.7-1.7.7-2.72s-.23-1.95-.7-2.73c-.46-.78-1.12-1.4-1.95-1.84-.84-.45-1.83-.67-2.96-.67h-3.8v10.49Z"/>
    <path class="cls-1" d="M281.06,97.63v-12.84h5.23c1.37,0,2.57.27,3.6.82,1.03.54,1.84,1.3,2.41,2.26s.86,2.08.86,3.34-.29,2.37-.86,3.34c-.57.97-1.38,1.72-2.41,2.26-1.03.54-2.23.82-3.6.82h-5.23ZM282.41,96.45h3.8c1.14,0,2.12-.22,2.96-.67.84-.45,1.49-1.06,1.95-1.85.46-.79.7-1.7.7-2.72s-.23-1.95-.7-2.73c-.46-.78-1.12-1.4-1.95-1.84-.84-.45-1.83-.67-2.96-.67h-3.8v10.49Z"/>
    <path class="cls-1" d="M297.58,97.63v-12.84h1.36v12.84h-1.36Z"/>
    <polygon class="cls-1" points="315.22 84.79 315.22 97.63 314.11 97.63 305.85 87.21 305.85 97.63 304.5 97.63 304.5 84.79 305.62 84.79 313.89 95.21 313.89 84.79 315.22 84.79"/>
    <path class="cls-1" d="M329.83,91.21h1.29v4.9c-.61.53-1.32.94-2.14,1.22-.83.27-1.69.41-2.57.41-.98,0-1.88-.16-2.71-.49-.83-.33-1.54-.78-2.15-1.36-.6-.58-1.07-1.28-1.41-2.08-.33-.79-.5-1.66-.5-2.6s.18-1.81.5-2.61c.34-.79.82-1.48,1.43-2.07.61-.58,1.33-1.05,2.15-1.36.83-.33,1.73-.49,2.71-.49s1.88.15,2.69.46c.8.3,1.5.76,2.08,1.39l-.84.86c-.54-.53-1.14-.91-1.78-1.16-.65-.23-1.35-.34-2.09-.34-.79,0-1.52.12-2.19.39-.67.26-1.25.64-1.74,1.12-.49.49-.88,1.05-1.16,1.69-.27.64-.41,1.35-.41,2.12s.14,1.46.41,2.11c.27.65.67,1.21,1.16,1.7.49.48,1.07.86,1.74,1.12.67.26,1.39.39,2.18.39.73,0,1.43-.11,2.08-.33.45-.16.87-.38,1.28-.68v-4.31Z"/>
    <path class="cls-1" d="M351.94,86.81c-.42-.65-1.02-1.16-1.81-1.51-.78-.34-1.71-.52-2.8-.52h-4.8v12.84h1.35v-4.05h3.46c1.09,0,2.03-.18,2.8-.53.79-.35,1.39-.86,1.81-1.52.42-.65.63-1.43.63-2.33s-.2-1.73-.63-2.38ZM350.21,91.55c-.67.56-1.65.83-2.92.83h-3.41v-6.42h3.41c1.28,0,2.26.29,2.92.84.67.57,1.01,1.36,1.01,2.39s-.34,1.8-1.01,2.35Z"/>
    <path class="cls-1" d="M356.88,97.63v-12.84h1.36v11.67h7.19v1.17h-8.55Z"/>
    <path class="cls-1" d="M374.2,84.79h-1.33l-5.86,12.84h1.4l1.54-3.43h7.17l1.54,3.43h1.43l-5.88-12.84ZM370.44,93.1l3.1-6.9,3.09,6.9h-6.19Z"/>
    <path class="cls-1" d="M385.43,97.63v-11.67h-4.51v-1.17h10.38v1.17h-4.51v11.67h-1.36Z"/>
    <polygon class="cls-1" points="396.2 85.96 396.2 91 402.84 91 402.84 92.17 396.2 92.17 396.2 97.63 394.84 97.63 394.84 84.79 403.64 84.79 403.64 85.96 396.2 85.96"/>
    <path class="cls-1" d="M413.28,97.74c-.97,0-1.86-.16-2.69-.49-.82-.32-1.54-.78-2.15-1.38-.61-.59-1.08-1.28-1.41-2.07-.34-.79-.5-1.65-.5-2.6s.17-1.81.5-2.6c.34-.79.81-1.48,1.41-2.07.6-.59,1.32-1.05,2.14-1.38s1.72-.49,2.7-.49,1.86.16,2.68.49c.82.32,1.53.78,2.14,1.37.61.59,1.08,1.28,1.41,2.07s.5,1.66.5,2.6-.17,1.81-.5,2.6-.81,1.49-1.41,2.07c-.6.59-1.32,1.04-2.14,1.37-.82.32-1.71.49-2.68.49ZM413.28,96.53c.77,0,1.48-.13,2.14-.39.65-.26,1.22-.64,1.71-1.12.48-.48.86-1.05,1.13-1.69.27-.64.4-1.35.4-2.12s-.13-1.48-.4-2.12c-.27-.64-.65-1.2-1.13-1.69-.48-.48-1.05-.86-1.71-1.12-.65-.26-1.37-.39-2.14-.39s-1.49.13-2.15.39-1.23.64-1.71,1.12c-.48.48-.86,1.05-1.14,1.69-.28.64-.41,1.35-.41,2.12s.14,1.46.41,2.11c.28.65.65,1.21,1.14,1.7s1.05.86,1.71,1.12,1.38.39,2.15.39Z"/>
    <path class="cls-1" d="M431.54,93.22c.18-.05.34-.12.5-.19.78-.35,1.37-.84,1.8-1.51.42-.65.64-1.43.64-2.33,0-1.39-.46-2.46-1.4-3.24-.94-.79-2.22-1.17-3.85-1.17h-4.8v12.84h1.36v-4.08h3.44c.37,0,.71-.01,1.03-.05l2.94,4.14h1.48l-3.14-4.41ZM429.2,92.39h-3.41v-6.43h3.41c1.28,0,2.26.29,2.92.84.67.57.99,1.36.99,2.39s-.33,1.8-.99,2.35c-.67.57-1.65.84-2.92.84Z"/>
    <polygon class="cls-1" points="452.39 84.79 452.39 97.63 451.1 97.63 451.1 87.36 446.06 96 445.42 96 440.37 87.43 440.37 97.63 439.06 97.63 439.06 84.79 440.18 84.79 445.76 94.3 451.28 84.79 452.39 84.79"/>
  </g>
  <g>
    <g>
      <polygon class="cls-1" points="68.85 72.84 59.61 72.84 59.56 47.32 47.03 68.35 42.6 68.35 30.14 47.87 30.14 72.84 20.9 72.84 20.9 30.31 29.05 30.31 44.98 56.71 60.64 30.31 68.73 30.31 68.85 72.84"/>
      <path class="cls-1" d="M101.41,30.31h-9.72l-18.96,42.53h10.09l3.79-9.11h19.72l3.77,9.11h10.33l-19.02-42.53ZM89.71,56.26l6.78-16.28,6.74,16.28h-13.52Z"/>
      <path class="cls-1" d="M152.43,59.21s.06-.03.09-.03c2.75-1.21,4.88-2.97,6.38-5.25,1.5-2.29,2.24-5.01,2.24-8.18,0-4.81-1.63-8.6-4.92-11.33s-7.88-4.1-13.79-4.1h-18.17v42.53h9.84v-11.85h8.56c.15,0,.31,0,.46,0l8.17,11.86h10.63l-9.5-13.64ZM148.93,51.18c-1.5,1.32-3.77,1.98-6.81,1.98h-8.01v-14.83h8.01c3.04,0,5.31.65,6.81,1.94,1.5,1.3,2.24,3.12,2.24,5.47s-.75,4.13-2.24,5.44Z"/>
      <path class="cls-1" d="M168.31,72.84V30.31h9.84v42.53h-9.84Z"/>
      <path class="cls-1" d="M210.72,30.31h-9.72l-18.96,42.53h10.09l3.79-9.11h19.72l3.77,9.11h10.33l-19.02-42.53ZM199.02,56.26l6.78-16.28,6.74,16.28h-13.52Z"/>
      <path class="cls-1" d="M261.7,50.91h8.99v17.26c-2.31,1.75-5,3.08-8.06,4.01-3.05.94-6.1,1.4-9.14,1.4-3.36,0-6.45-.54-9.27-1.61-2.81-1.07-5.26-2.61-7.35-4.59-2.09-1.99-3.71-4.32-4.86-6.99-1.16-2.67-1.74-5.61-1.74-8.8s.58-6.14,1.74-8.81c1.15-2.67,2.79-5,4.89-6.99,2.1-1.98,4.57-3.51,7.41-4.58,2.83-1.07,5.95-1.61,9.35-1.61,3.77,0,7.16.63,10.18,1.88,3.02,1.26,5.55,3.08,7.63,5.47l-6.32,5.83c-1.54-1.62-3.22-2.83-5.05-3.61-1.82-.79-3.81-1.19-5.95-1.19s-3.95.33-5.66.97c-1.7.64-3.16,1.58-4.4,2.79-1.24,1.21-2.18,2.66-2.85,4.32-.67,1.66-1.01,3.5-1.01,5.53s.34,3.81,1.01,5.47c.67,1.66,1.62,3.1,2.85,4.34,1.24,1.24,2.69,2.18,4.38,2.83,1.68.64,3.53.97,5.55.97s3.84-.32,5.68-.95c.67-.22,1.32-.51,1.98-.85v-12.48Z"/>
      <polygon class="cls-1" points="312.13 64.95 312.13 72.84 279.2 72.84 279.2 30.31 311.34 30.31 311.34 38.21 288.98 38.21 288.98 47.44 308.73 47.44 308.73 55.11 288.98 55.11 288.98 64.95 312.13 64.95"/>
    </g>
    <g>
      <path class="cls-1" d="M351.38,30.31h-3.1l-19.57,42.53h3.34l5.43-11.97h24.68l5.44,11.97h3.34l-19.57-42.53ZM338.68,58.26l11.13-24.53,11.16,24.53h-22.29Z"/>
      <polygon class="cls-1" points="381.16 33.1 381.16 51.28 403.82 51.28 403.82 54.07 381.16 54.07 381.16 72.84 378.06 72.84 378.06 30.31 406.5 30.31 406.5 33.1 381.16 33.1"/>
      <path class="cls-1" d="M438.18,57.97c.71-.21,1.39-.47,2.04-.77,2.55-1.16,4.51-2.8,5.9-4.93,1.38-2.12,2.06-4.67,2.06-7.63,0-4.53-1.52-8.06-4.56-10.57-3.04-2.52-7.23-3.77-12.58-3.77h-15.25v42.53h3.1v-13.91h12.15c1.45,0,2.82-.09,4.1-.29l10.18,14.2h3.53l-10.67-14.87ZM418.9,57.65l-.09-.09.09-.09v.18ZM418.9,56.2v-23.09h12.15c4.57,0,8.05,1.01,10.42,3.01,2.37,2,3.55,4.86,3.55,8.54s-1.18,6.48-3.55,8.51c-2.37,2.02-5.85,3.04-10.42,3.04h-12.15Z"/>
      <path class="cls-1" d="M476.98,73.15c-3.16,0-6.09-.54-8.78-1.61-2.69-1.07-5.04-2.59-7.05-4.56-2.01-1.96-3.55-4.25-4.65-6.87-1.09-2.61-1.64-5.46-1.64-8.54s.55-5.92,1.64-8.54c1.09-2.61,2.64-4.9,4.65-6.87,2-1.96,4.35-3.48,7.05-4.56,2.69-1.07,5.62-1.61,8.78-1.61s6.09.54,8.78,1.61c2.69,1.07,5.03,2.58,7.02,4.53,1.98,1.94,3.53,4.22,4.65,6.84,1.11,2.61,1.67,5.48,1.67,8.6s-.56,5.98-1.67,8.6c-1.11,2.61-2.66,4.89-4.65,6.84-1.99,1.94-4.32,3.45-7.02,4.53-2.69,1.07-5.62,1.61-8.78,1.61ZM476.98,70.29c2.71,0,5.23-.47,7.53-1.4,2.31-.93,4.31-2.25,6.02-3.95,1.7-1.7,3.03-3.69,3.98-5.95.95-2.27,1.43-4.74,1.43-7.41s-.48-5.2-1.43-7.44c-.95-2.25-2.28-4.22-3.98-5.92-1.7-1.7-3.71-3.02-6.02-3.95-2.31-.93-4.82-1.4-7.53-1.4s-5.23.47-7.53,1.4c-2.31.93-4.32,2.25-6.05,3.95-1.72,1.7-3.06,3.68-4.01,5.92-.95,2.25-1.43,4.73-1.43,7.44s.48,5.14,1.43,7.41c.95,2.27,2.29,4.25,4.01,5.95,1.72,1.7,3.74,3.02,6.05,3.95,2.31.93,4.82,1.4,7.53,1.4Z"/>
    </g>
  </g>
</svg>