<?xml version="1.0" encoding="UTF-8"?>
<svg id="Calque_1" data-name="Calque 1" xmlns="http://www.w3.org/2000/svg" viewBox="0 0 343.46 390.61">
  <defs>
    <style>
      .cls-1 {
        fill: #efede4;
      }
    </style>
  </defs>
  <path class="cls-1" d="M205.27,367.3c-1.1.18-1.79.7-2.62.76-.65.05-1.3.17-1.97.26-.8.55-1.61,1.1-2.41,1.65-.64.18-1.27.33-1.89.55-.47.16-.89.27-1.39.06-.44-.19-.94-.34-1.42-.35-1.38,0-2.45-.88-3.69-1.27-.52-.39-1.07-.76-1.56-1.19-1.36-1.2-1.6-1.58-2.49-3.58-.13-.3-.25-.6-.41-.99-.09-1.55-.19-3.19-.3-4.89-.65-1.28-.76-2.76-.93-4.19-.41-.92-.87-1.79-.9-2.81-.02-.66-.22-1.28-.51-1.88-.21-.44-.38-.92-.44-1.39-.14-1.01-.86-1.76-1.11-2.71-.64-.95-1.3-1.89-1.92-2.85-.36-.56-.82-1.02-1.27-1.49-.68-.71-1.37-1.41-2.02-2.15-.65-.73-1.34-1.45-1.68-2.4-.06-.15-.16-.29-.26-.42-.8-1.04-1.51-2.13-2.15-3.28-1.31-1.23-1.54-2.82-1.5-4.5.03-1.31,0-2.62,0-3.93,0-1.47,0-2.95,0-4.18-.28-1.19-.82-2.04-.81-3.07,0-1.32-.22-2.61-.92-3.77-.09-1.34-.81-2.47-1.27-3.69-.29-.76-.75-1.45-.92-2.26-.06-.31-.23-.61-.4-.88-.5-.84-1.16-1.57-1.61-2.46-.44-.87-1.17-1.59-1.65-2.44-.8-1.42-1.47-2.92-2.27-4.34-.72-1.28-1.34-2.61-2.2-3.82-1.03-1.47-1.67-3.17-2.47-4.78-.07-.14-.09-.32-.1-.48-.08-.84-.47-1.56-.88-2.41-.1-1.02-.21-2.16-.33-3.32-.17-.44-.35-.9-.52-1.36-.24-3.43-.25-3.87-.08-8.31.28-.79.51-1.58.85-2.32.35-.77.95-1.38,1.81-1.51.99-.15,1.89-.5,2.84-.98.74-.1,1.55-.2,2.32-.3,1.24-.54,2.44-1.05,3.67-1.58,1.12-.1,2.26-.2,3.31-.29.53-.25.98-.45,1.51-.7.39-.05.88-.13,1.36-.19.33-.04.65-.06.98-.11.16-.02.33-.07.46-.16.97-.68,2.22-.56,3.22-1.14.98-.57,2.09-.89,2.93-1.74.57-.57,1.28-.98,1.87-1.42.43-.8.82-1.52,1.21-2.23.22-1.97.08-3.93,0-5.48-.16-1.09-.65-1.58-.89-2.18-.24-.62-.51-1.21-.98-1.68-.83-.84-1.28-1.89-1.75-2.94-.2-.46-.21-.94.09-1.4.09-.14.13-.3.21-.44.46-.87.3-1.93.87-2.79.45-.67.75-1.45,1.1-2.18.22-.46.22-.93-.01-1.4-.37-.73-.72-1.46-1.1-2.18-.28-.53-1.07-.73-1.68-.45-.74.35-1.49.68-2.28,1.04-.24-.06-.5-.24-.74-.48-.42-.42-.43-.74-.02-1.22.64-.75,1.39-1.42,1.9-2.25.77-1.25,1.41-2.58,1.96-3.94.19-.46.15-.94-.12-1.4-.33-.56-.61-1.15-.89-1.69-.46-.28-.87-.54-1.29-.78-.42-.24-.86-.48-1.29-.7-1.03-.54-1.92-1.23-2.61-2.18-.25-.35-.28-1.04-.02-1.38.2-.26.37-.55.6-.77.82-.8,1.65-1.59,2.49-2.37,1.11-1.04,1.59-2.46,2.29-3.75.15-.27.2-.63.19-.95-.01-1,.26-1.93.68-2.83-.2-.44-.46-.87-.59-1.34-.19-.66-.6-1.16-1.08-1.6-.48-.44-.98-.89-1.54-1.21-.57-.32-1.13-.66-1.72-.94-1.47-.7-2.94-1.39-4.42-2.09-.43-.2-.95-.22-1.44-.32-.67-.47-1.33-.96-2.03-1.39-.55-.34-1.2-.53-1.74-.88-.69-.44-1.51-.65-2.11-1.23-1.06-1.03-2.42-1.65-3.51-2.66-1.35-1.25-2.4-2.67-3.09-4.34-.15-.65-.1-1.33-.49-1.9-.48-.68-.58-1.53-.97-2.25-.32-.59-.46-1.23-.48-1.88-.04-1.01-.43-1.9-.89-2.8-.11-.79-.22-1.61-.33-2.37-.61-1.21-1.21-2.37-1.8-3.54-.15-.29-.25-.61-.44-.87-.38-.53-.82-1.02-1.22-1.54-.4-.52-.87-1-1.16-1.57-.31-.59-.69-1.11-1.11-1.61-1.15-1.38-2.55-2.55-3.41-4.17-1.12-1.18-2.14-2.48-3.62-3.29-.56-.31-1.04-.79-1.54-1.2-.51-.41-1.01-.83-1.52-1.25-.13-.1-.26-.22-.41-.27-1.14-.35-1.89-1.29-2.86-1.88-.56-.34-1.14-.64-1.72-.94-.87-.45-1.73-.93-2.62-1.31-1.22-.53-2.07-1.62-3.31-2.09-.48-.44-.97-.88-1.44-1.33-.24-.23-.44-.49-.68-.71-2.5-2.33-3.74-3.12-7.37-4.71-.6-.26-1.19-.53-1.83-.81-1.1-.1-2.24-.2-3.22-.28-.6-.27-1.05-.47-1.53-.68-6.36-.59-12.74-.19-19.09-.05-1.52.94-3.23.66-4.82.97-.6.25-1.21.49-1.81.74-.82.09-1.63.18-2.44.27-.45.21-.9.42-1.48.69-.51.07-1.16.14-1.8.24-.32.05-.65.11-.94.25-.75.36-1.51.61-2.35.64-.66.03-1.3.14-1.88.49-.58.35-1.22.44-1.87.52-.32.04-.66.11-.94.26-.73.38-1.48.66-2.3.81-.8.15-1.44.77-2.27.88-.16.02-.33.04-.48.11-1.19.53-2.35,1.16-3.58,1.57-1.08.36-2.14.73-3.18,1.22-2.25,1.07-4.17,2.07-6.02,3.26-.28.18-.52.43-.82.54-1.09.4-2.06,1.03-2.97,1.69-1.05.77-2.01,1.68-2.93,2.62-1.26,1.28-2.53,2.56-3.47,4.12-.06.11-.23.15-.35.22-1.12-.38-1.75-1.49-2.84-1.9-.59-.57-1.22-1.1-1.76-1.71-.77-.85-1.3-1.88-2.13-2.69-.7-.69-1.31-1.46-2.01-2.25-.73-1.39-1.52-2.82-2.25-4.28-.37-.74-.76-1.45-1.33-2.05-.68-.71-1.36-1.42-2.06-2.11-.58-.58-1.19-1.13-1.96-1.45q-2.96-2.01-5.87-3.52c-.58-.3-1.19-.55-1.74-.89-.97-.61-1.94-1.22-2.84-1.92-.66-.51-1.09-1.22-1.15-2.09-.04-.65-.09-1.31-.07-1.96.04-1.31.14-2.62.2-3.93.05-1.15,0-2.29-.25-3.41-.57-1.22-1.58-2.1-2.37-3.14-.35-.46-.4-.99-.08-1.33.22-.24.46-.46.69-.7.79-.83,1.5-1.72,1.95-2.8.38-.9.87-1.76,1.37-2.6.58-.98,1.06-2.03,1.89-2.85,1.19-1.18,1.84-2.68,2.46-4.2q.25-3.24.03-6.87c-.35-1.08-.88-2.11-.91-3.28,0-.32-.07-.66-.19-.96-.45-1.05-.99-2.07-1.4-3.13-.41-1.06-.62-2.2-1.17-3.21q-.22-2.9.08-5.48c1-1.38,1.84-2.98,2.95-4.4.41-.52.66-1.12.95-1.71.82-1.6,1.69-3.17,2.49-4.77.73-1.46,1.45-2.92,2.18-4.38.51-1.02,1.03-2.04,1.56-3.05.99-1.89,1.39-2.51,2.49-3.61.93-.93,1.9-1.8,2.87-2.69.24-.22.52-.42.81-.54,1.23-.5,2.03-1.67,3.3-2.1.94-.65,2.07-.99,2.97-1.71.91-.72,1.96-1.17,2.97-1.72,1-.54,2.06-.98,3.08-1.5.89-.45,1.6-1.13,2.35-1.99.33-.77.71-1.67,1.11-2.62.08-2.09.16-4.21.24-6.28.23-.51.46-.95.62-1.41.88-2.68,1.17-3.41,2.25-5.39.23-.43.49-.85.8-1.23.93-1.15,1.95-2.21,3.17-3.26.48-.23,1.07-.5,1.65-.79.59-.29,1.17-.59,1.79-.9,1-.8,2.02-1.61,3.05-2.43,1.11-.4,1.81-1.43,2.84-1.91,1.2-.56,2.11-1.55,3.39-2.1,1.88-.31,3.85-.32,5.81-.27,2.13.06,4.26.13,6.39.19,1,.03,1.96-.09,2.82-.66.14-.09.29-.2.44-.22,1.17-.1,2.16-.73,3.23-1.11,1.07-.39,2.05-1.05,3.23-1.11.87-.46,1.76-.82,2.74-1.04.79-.17,1.44-.76,2.25-.94.95-.69,2.16-.73,3.18-1.23,1.03-.5,2.16-.77,3.13-1.4,1.36,0,2.43-.94,3.73-1.13.83-.12,1.54-.54,2.28-.85.82-.12,1.63-.24,2.39-.36.49-.21.94-.4,1.51-.64,7.92-.07,15.95.11,23.79-.22,1.11-.36,1.94-.93,2.97-.94.83,0,1.59-.31,2.36-.63.78-.32,1.59-.27,2.38.08.45.2.88.44,1.38.48.86.06,1.57.45,2.18,1.02.6.56,1.17,1.14,1.74,1.74.22.24.44.5.58.79.64,1.32,1.29,2.64,1.87,3.99.19.44.24.95.28,1.44.07.83.3,1.6.65,2.34-.16.29-.29.58-.46.85-.18.28-.44.5-.77.57-.63.14-1.3.17-1.91.37-.62.2-1.21.5-1.78.83-.43.25-.69.68-.72,1.2-.03.49,0,.97.3,1.4.46.69,1.07,1.24,1.79,1.86.92.42,1.97.86,2.99,1.37.88.44,1.71.95,2.57,1.43,1.75,1.53,3.87,2.42,5.95,3.38.81.07,1.63.15,2.43.22.92.36,1.8.83,2.81.87.48.02.97.11,1.42.33,1.76.85,3.63,1.47,5.28,2.56.27.18.6.28.85.49,1.76,1.52,3.91,2.34,5.95,3.38,1.27.26,2.63.19,3.89.91,2.36.19,4.8.58,7.23.11.3-.18.61-.31.86-.51.51-.41,1-.84,1.48-1.29,1.19-1.13,2.36-2.28,3.54-3.41.12-.11.24-.23.39-.3,1.21-.57,2.12-1.54,3.12-2.37.9-.75,2.01-1.09,2.99-1.67.27-.16.63-.17.95-.2,1.48-.15,2.95-.12,4.41.15,1.15.64,2.44.96,3.56,1.64.13.08.31.09.48.11.83.1,1.53.55,2.29.85.6.24,1.27.28,1.9.46.47.14.9.38,1.33.56,1.67.19,3.31.13,4.95.12,2.79,0,5.57-.03,8.36-.02,1.31,0,2.62.08,3.93.13.87.03,1.55.44,2.13,1.06.28.3.31,1.01.06,1.36-.58.8-1.24,1.56-2.08,2.07-.99.6-1.86,1.33-2.72,2.08-.62.54-1.29.99-1.99,1.42-1.11.69-2.02,1.66-2.9,2.63-.41.45-.45.79-.1,1.25.61.78,1.48.97,2.11.44.5-.42,1.03-.81,1.5-1.27,1.04-1.04,2.09-2.08,3.07-3.19,1.11-1.25,2.48-2.11,3.93-2.88.43-.23.9-.4,1.34-.6.44-.21.86-.48,1.37-.51,1.32-.08,2.41-1.04,3.77-1,1,.03,1.93-.31,2.62-.76,1.17-.12,2.14-.26,3.13-.17.51.05.75.44.54.94-.52,1.2-1.17,2.33-1.69,3.53-.45,1.05-.97,2.07-1.5,3.17-.11.74-.23,1.55-.35,2.34-.21.46-.41.91-.61,1.34q-.36,2.62-1,4.34c-.24,3.88-.17,7.81-.06,11.84.2.53.42,1.14.68,1.84.12,1.7.24,3.5.36,5.22.22.53.41.98.67,1.6.09.98.19,2.12.29,3.27.22.6.45,1.21.69,1.86.07,1.27.14,2.57.21,3.92.36.71.72,1.44,1.09,2.17.23.22.43.51.69.66,1.27.74,2.32,1.82,3.68,2.43.28.13.5.42.71.67.31.38.56.79.63,1.3.19,1.48.06,2.94-.06,4.37-1.39,3.55-3.23,6.82-4.93,10.16-.29.58-.69,1.11-1.12,1.61-.54.63-.74,1.46-1.24,2.11-.4.52-.85,1.01-1.16,1.58-.78,1.43-1.5,2.89-2.23,4.35-.29.58-.55,1.18-.86,1.83-.22,1.73-.29,3.53-.09,5.36.3.55.63,1.12.93,1.7.15.3.29.62.59.76,1.03.47,1.89,1.33,3.13,1.3.68-.02,1.2.5,1.81.67.82.11,1.64.21,2.44.32.37.05.79.63.88,1.06.13.66.03,1.3-.08,2.01-.21.38-.49.79-.68,1.24-.32.77-.76,1.44-1.32,2.05-.55.6-1.08,1.23-1.61,1.85-.22.25-.3.57-.33.91-.07.82,0,1.64.14,2.45.05.32.18.62.32.92.14.3.38.55.47.86.24.81.73,1.46,1.3,2.05q1.07,1.13,3.52,2.71c-.77.86-1.55,1.69-2.29,2.56-.2.24-.35.58-.39.89-.26,1.96-.22,3.93.03,5.88.04.31.17.65.36.9.4.51.86.99,1.32,1.45.35.35.79.59,1.3.6,1.31.02,2.62,0,3.82,0,1.63.64,3.03,1.47,4.41,2.33.3.19.38.51.45.84.1.49.07.98.05,1.47-.07,2.46-.06,4.92.12,7.31.33.98.89,1.81.99,2.82.03.3.23.62.44.86.76.85,1.44,1.8,2.6,2.18.78.61,1.75.86,2.59,1.37.58.34,1.2.52,1.86.57.34.02.64.11.93.28.58.32,1.19.53,1.86.56,2.46.09,4.92.13,7.29-.03,1-.35,1.86-.85,2.87-.91.66-.04,1.2-.5,1.79-.76,1.52,0,2.71-1.16,4.22-1.21,1.07-.39,2.08-.95,3.25-1.05.88-.45,1.78-.84,2.78-.91,1.17-.63,2.44-.9,3.75-1.06.31-.04.61-.21.9-.37.74-.4,1.58-.42,2.35-.66.62-.19,1.15-.62,1.81-.73.48-.08.97-.17,1.43-.32.46-.15.9-.39,1.37-.6.63-.06,1.28-.17,1.94-.16,1.02,0,1.91-.42,2.97-.77.68.03,1.5.06,2.31.09,1.28.78,2.92.5,4.16,1.4.62.21,1.3.31,1.84.64.83.52,1.59,1.16,2.32,1.81,1.09.98,2.23,1.94,3.07,3.17.16.23.12.62.12.94,0,.14-.13.3-.23.42-1.17,1.38-2.53,2.56-3.95,3.68-1.02.5-1.95,1.2-3.08,1.47-1.61.38-3.04,1.11-4.38,2.08-1.46,1.06-2.91,2.1-4.17,3.41-1.59,1.65-3.23,3.26-4.82,4.92-.79.82-1.67,1.59-2.15,2.66-.76.86-1.53,1.71-2.29,2.57-.97,1.11-2.07,2.09-2.77,3.43-.29.57-.83,1.01-1.24,1.51-.94,1.13-2.05,2.13-2.68,3.5-1.45,1.78-3.01,3.47-4.73,4.99-.49.44-1.02.83-1.46,1.31-.78.86-1.43,1.8-1.41,3.04,0,.33-.06.65-.07.98-.02.83-.25,1.61-.55,2.38-.18.46-.15.95.07,1.42.2.44.38.9.42,1.4.04.49.13.98.22,1.46.22,1.12.91,2.09.85,3.3-.04.98.07,1.96.12,2.95.02.33.06.65.09,1,.21.59.43,1.21.65,1.82.04,1.69.67,3.18,1.64,4.8.75.77,1.67,1.7,2.57,2.65.45.48.88.97,1.28,1.49.3.39.52.83.57,1.34.02.16.05.32.07.49.2,1.67-.01,3.27-.91,4.74-.26,2.12,0,4.25.05,6.3.37.99.73,1.9.71,2.91-.03,1.31,0,2.62,0,3.83-.69,1.28-.81,2.59-1.03,4-.58,1.22-1.18,2.56-1.83,3.88-.73,1.46-1.45,2.92-2.51,4.2-.41.5-.65,1.14-1.05,1.65-.61.77-1.31,1.49-2.23,1.88-1.05.44-2,1.14-3.18,1.25-2.05,1-4.14,1.94-6.15,3.01-1.15.61-2.14,1.49-3.26,2.18-.83.52-1.52,1.28-2.03,2.12-.43.7-.85,1.4-1.42,1.99-1.62,1.69-2.54,3.79-3.49,5.87-.06.14-.04.32-.04.48,0,.16,0,.34.07.47.73,1.3.66,2.88,1.5,4.15.12.8.25,1.61.37,2.41.26.61.68,1.16.72,1.82.07,1.01.53,1.88.87,2.81.13,1.3.31,2.6.2,3.91-.03.33-.12.64-.33.91-1.04,1.28-2.25,2.36-3.74,3.11-1.9.95-3.76,1.97-5.69,2.86-.9.41-1.69.98-2.59,1.42-.55.6-.79,1.4-1.13,2.14-.12.27-.14.68-.02.94.41.91.63,1.85.73,2.84.05.48.18.97.36,1.42.19.47.24.9.04,1.38-.18.45-.3.93-.4,1.41-.11.49-.34.92-.64,1.31-1.11,1.43-2.4,2.69-3.67,3.97-1.74,1.74-3.5,3.46-5.21,5.22-.91.93-1.91,1.8-2.5,3.01-.14.29-.4.52-.62.76-3.13,3.36-6.29,6.68-9.63,9.84-1.56,1.48-3.46,2.45-5.18,3.69-.46.33-5.26,2.72-5.7,2.82-1.12.24-2.19.62-3.26,1.01-.45.16-.97.15-1.46.16-1.64.03-3.28.04-4.92.05-2.29.01-4.59,0-6.88.02-1.15.01-2.29.06-3.15.09Z"/>
</svg>