<?xml version="1.0" encoding="UTF-8"?>
<svg id="Calque_1" data-name="Calque 1" xmlns="http://www.w3.org/2000/svg" viewBox="0 0 520 127.42">
  <defs>
    <style>
      .cls-1 {
        fill: #68191e;
      }
    </style>
  </defs>
  <g>
    <path class="cls-1" d="M93.18,107.6h-1.21l-5.27,11.55h1.27l1.38-3.08h6.44l1.38,3.08h1.28l-5.27-11.55ZM89.79,115.07l2.78-6.22,2.78,6.22h-5.55Z"/>
    <polygon class="cls-1" points="102.83 108.65 102.83 113.19 108.8 113.19 108.8 114.24 102.83 114.24 102.83 119.15 101.61 119.15 101.61 107.6 109.52 107.6 109.52 108.65 102.83 108.65"/>
    <path class="cls-1" d="M119.68,115.18c.16-.05.31-.11.45-.17.7-.32,1.25-.76,1.63-1.36.38-.59.56-1.28.56-2.09,0-1.25-.42-2.21-1.26-2.91-.84-.71-1.99-1.05-3.45-1.05h-4.33v11.55h1.22v-3.67h3.11c.32,0,.64-.01.92-.05l2.64,3.72h1.33l-2.83-3.96ZM117.57,114.44h-3.07v-5.79h3.07c1.15,0,2.03.26,2.63.76.6.51.89,1.22.89,2.15s-.29,1.62-.89,2.12c-.6.51-1.48.76-2.63.76Z"/>
    <path class="cls-1" d="M131.5,119.24c-.87,0-1.67-.15-2.42-.44-.74-.29-1.39-.7-1.93-1.24-.54-.53-.97-1.15-1.27-1.86-.3-.71-.45-1.49-.45-2.33s.15-1.62.45-2.33c.3-.71.73-1.33,1.27-1.86.54-.53,1.18-.95,1.92-1.24s1.55-.44,2.43-.44,1.67.15,2.41.44c.74.29,1.38.7,1.92,1.23.54.53.97,1.15,1.27,1.86s.45,1.5.45,2.34-.15,1.63-.45,2.34-.73,1.34-1.27,1.86c-.54.53-1.18.94-1.92,1.23-.74.29-1.54.44-2.41.44ZM131.5,118.15c.69,0,1.33-.12,1.92-.35.59-.24,1.1-.57,1.53-1.01.43-.43.77-.94,1.01-1.52.24-.58.36-1.21.36-1.91s-.12-1.33-.36-1.91c-.24-.58-.58-1.08-1.01-1.52-.43-.43-.95-.77-1.53-1.01-.59-.24-1.23-.35-1.92-.35s-1.34.12-1.93.35-1.11.57-1.54,1.01-.78.94-1.02,1.52c-.25.58-.37,1.21-.37,1.91s.12,1.31.37,1.9.59,1.09,1.02,1.53.95.77,1.54,1.01,1.24.35,1.93.35Z"/>
    <path class="cls-1" d="M154.38,116.86c.48-.72.81-1.62,1-2.67l-.94-.29c-.16.87-.42,1.62-.77,2.23l-3.17-3.27c.51-.29.93-.56,1.27-.82.47-.34.8-.7.99-1.06.21-.35.31-.75.31-1.16,0-.49-.11-.91-.33-1.25-.23-.33-.54-.6-.94-.78-.4-.17-.87-.27-1.41-.27-.6,0-1.11.11-1.55.31-.44.21-.78.49-1.02.86-.23.37-.35.81-.35,1.3,0,.31.05.6.13.88.09.27.24.56.46.86s.5.62.87,1c-.61.34-1.13.69-1.53,1.02-.49.4-.84.81-1.06,1.22-.22.4-.33.86-.33,1.36,0,.59.17,1.09.5,1.53.34.44.8.78,1.38,1.04.59.24,1.25.37,1.99.37.94,0,1.8-.2,2.54-.58.49-.26.93-.59,1.31-1l1.62,1.66.67-.78-1.65-1.69ZM148.66,110.62c-.07-.21-.11-.43-.11-.66,0-.46.16-.84.48-1.14.32-.28.77-.43,1.36-.43.54,0,.95.12,1.24.39.29.27.44.61.44,1.04,0,.29-.09.58-.24.83-.17.26-.44.53-.83.81-.29.21-.67.45-1.14.72-.33-.35-.59-.65-.78-.88-.2-.24-.33-.48-.4-.69ZM152.02,117.79c-.6.32-1.28.48-2.06.48-.55,0-1.04-.09-1.47-.26-.42-.17-.75-.4-.99-.72-.23-.32-.35-.67-.35-1.1,0-.35.09-.69.26-.99.16-.31.44-.61.84-.93.34-.27.78-.56,1.32-.88l3.49,3.58c-.29.34-.65.61-1.04.82Z"/>
    <polygon class="cls-1" points="176.91 107.6 176.91 119.15 175.74 119.15 175.74 109.91 171.2 117.68 170.63 117.68 166.09 109.96 166.09 119.15 164.92 119.15 164.92 107.6 165.93 107.6 170.93 116.15 175.91 107.6 176.91 107.6"/>
    <path class="cls-1" d="M181.91,119.14v-11.55h1.22v11.55h-1.22Z"/>
    <polygon class="cls-1" points="196.45 119.15 195.04 119.15 191.3 114.07 187.6 119.15 186.2 119.15 190.59 113.21 186.48 107.6 187.88 107.6 191.36 112.32 194.83 107.6 196.15 107.6 192.06 113.18 196.45 119.15"/>
    <polygon class="cls-1" points="207.7 118.08 207.7 119.15 199.53 119.15 199.53 107.6 207.44 107.6 207.44 108.65 200.75 108.65 200.75 112.76 206.72 112.76 206.72 113.8 200.75 113.8 200.75 118.08 207.7 118.08"/>
    <path class="cls-1" d="M211.8,119.14v-11.55h4.7c1.23,0,2.31.25,3.24.73.93.49,1.65,1.17,2.17,2.04s.78,1.87.78,3-.26,2.13-.78,3c-.52.87-1.24,1.55-2.17,2.04-.93.49-2.01.73-3.24.73h-4.7ZM213.02,118.09h3.42c1.02,0,1.91-.2,2.66-.6.75-.4,1.34-.96,1.76-1.67.42-.71.63-1.53.63-2.45s-.21-1.75-.63-2.46c-.42-.7-1-1.26-1.76-1.66-.75-.4-1.64-.6-2.66-.6h-3.42v9.44Z"/>
    <polygon class="cls-1" points="248.08 107.6 244.18 119.15 242.9 119.15 239.51 109.31 236.12 119.15 234.85 119.15 230.96 107.6 232.21 107.6 235.55 117.54 238.98 107.6 240.11 107.6 243.52 117.59 246.91 107.6 248.08 107.6"/>
    <polygon class="cls-1" points="259.71 118.08 259.71 119.15 251.54 119.15 251.54 107.6 259.47 107.6 259.47 108.65 252.76 108.65 252.76 112.76 258.73 112.76 258.73 113.8 252.76 113.8 252.76 118.08 259.71 118.08"/>
    <path class="cls-1" d="M263.82,119.14v-11.55h4.7c1.23,0,2.31.25,3.24.73s1.65,1.17,2.17,2.04.78,1.87.78,3-.26,2.13-.78,3c-.52.87-1.24,1.55-2.17,2.04-.93.49-2.01.73-3.24.73h-4.7ZM265.04,118.09h3.42c1.02,0,1.91-.2,2.66-.6.75-.4,1.34-.96,1.76-1.67.42-.71.63-1.53.63-2.45s-.21-1.75-.63-2.46c-.42-.7-1-1.26-1.76-1.66-.75-.4-1.64-.6-2.66-.6h-3.42v9.44Z"/>
    <path class="cls-1" d="M278.68,119.14v-11.55h4.7c1.23,0,2.31.25,3.24.73.93.49,1.65,1.17,2.17,2.04s.78,1.87.78,3-.26,2.13-.78,3c-.52.87-1.24,1.55-2.17,2.04-.93.49-2.01.73-3.24.73h-4.7ZM279.9,118.09h3.42c1.02,0,1.91-.2,2.66-.6.75-.4,1.34-.96,1.76-1.67.42-.71.63-1.53.63-2.45s-.21-1.75-.63-2.46c-.42-.7-1-1.26-1.76-1.66-.75-.4-1.64-.6-2.66-.6h-3.42v9.44Z"/>
    <path class="cls-1" d="M293.55,119.14v-11.55h1.22v11.55h-1.22Z"/>
    <polygon class="cls-1" points="309.41 107.6 309.41 119.15 308.41 119.15 300.98 109.77 300.98 119.15 299.77 119.15 299.77 107.6 300.77 107.6 308.21 116.97 308.21 107.6 309.41 107.6"/>
    <path class="cls-1" d="M322.55,113.37h1.16v4.4c-.55.48-1.19.84-1.92,1.1-.75.24-1.52.37-2.31.37-.88,0-1.69-.15-2.43-.44-.75-.29-1.38-.7-1.93-1.22-.54-.53-.97-1.15-1.27-1.87-.29-.71-.45-1.49-.45-2.34s.16-1.63.45-2.35c.31-.71.73-1.33,1.28-1.86.55-.53,1.2-.94,1.93-1.22.75-.29,1.55-.44,2.43-.44s1.69.13,2.42.42c.72.27,1.35.69,1.87,1.25l-.76.77c-.49-.48-1.03-.82-1.6-1.04-.59-.21-1.21-.31-1.88-.31-.71,0-1.37.11-1.97.35-.6.23-1.13.58-1.57,1-.44.44-.8.94-1.04,1.52-.24.58-.37,1.21-.37,1.91s.12,1.31.37,1.9c.24.59.6,1.09,1.04,1.53.44.43.97.77,1.57,1,.6.23,1.25.35,1.96.35.66,0,1.28-.1,1.87-.29.4-.15.78-.34,1.15-.61v-3.88Z"/>
    <path class="cls-1" d="M342.43,109.42c-.38-.59-.92-1.04-1.63-1.36-.7-.31-1.54-.46-2.52-.46h-4.32v11.55h1.21v-3.65h3.11c.98,0,1.82-.16,2.52-.48.71-.32,1.25-.77,1.63-1.37.38-.59.56-1.28.56-2.09s-.18-1.55-.56-2.14ZM340.88,113.68c-.6.5-1.48.75-2.63.75h-3.07v-5.78h3.07c1.15,0,2.03.26,2.63.76.6.51.91,1.22.91,2.15s-.31,1.62-.91,2.12Z"/>
    <path class="cls-1" d="M346.88,119.14v-11.55h1.22v10.49h6.47v1.06h-7.69Z"/>
    <path class="cls-1" d="M362.46,107.6h-1.2l-5.27,11.55h1.26l1.38-3.08h6.45l1.38,3.08h1.28l-5.29-11.55ZM359.07,115.07l2.79-6.2,2.78,6.2h-5.57Z"/>
    <path class="cls-1" d="M372.57,119.14v-10.49h-4.06v-1.06h9.34v1.06h-4.06v10.49h-1.22Z"/>
    <polygon class="cls-1" points="382.25 108.65 382.25 113.19 388.22 113.19 388.22 114.24 382.25 114.24 382.25 119.15 381.03 119.15 381.03 107.6 388.94 107.6 388.94 108.65 382.25 108.65"/>
    <path class="cls-1" d="M397.61,119.24c-.87,0-1.67-.15-2.42-.44-.74-.29-1.39-.7-1.93-1.24-.54-.53-.97-1.15-1.27-1.86-.3-.71-.45-1.49-.45-2.33s.15-1.62.45-2.33c.3-.71.73-1.33,1.27-1.86.54-.53,1.18-.95,1.92-1.24s1.55-.44,2.43-.44,1.67.15,2.41.44c.74.29,1.38.7,1.92,1.23.54.53.97,1.15,1.27,1.86s.45,1.5.45,2.34-.15,1.63-.45,2.34-.73,1.34-1.27,1.86c-.54.53-1.18.94-1.92,1.23-.74.29-1.54.44-2.41.44ZM397.61,118.15c.69,0,1.33-.12,1.92-.35.59-.24,1.1-.57,1.53-1.01.43-.43.77-.94,1.01-1.52.24-.58.36-1.21.36-1.91s-.12-1.33-.36-1.91c-.24-.58-.58-1.08-1.01-1.52-.43-.43-.95-.77-1.53-1.01-.59-.24-1.23-.35-1.92-.35s-1.34.12-1.93.35-1.11.57-1.54,1.01-.78.94-1.02,1.52c-.25.58-.37,1.21-.37,1.91s.12,1.31.37,1.9c.25.58.59,1.09,1.02,1.53s.95.77,1.54,1.01,1.24.35,1.93.35Z"/>
    <path class="cls-1" d="M414.04,115.18c.16-.05.31-.11.45-.17.7-.32,1.24-.76,1.62-1.36.38-.59.58-1.28.58-2.09,0-1.25-.42-2.21-1.26-2.91-.84-.71-1.99-1.05-3.46-1.05h-4.32v11.55h1.22v-3.67h3.1c.33,0,.64-.01.93-.05l2.64,3.72h1.33l-2.83-3.96ZM411.93,114.44h-3.07v-5.79h3.07c1.15,0,2.03.26,2.63.76.6.51.89,1.22.89,2.15s-.29,1.62-.89,2.12c-.6.51-1.48.76-2.63.76Z"/>
    <polygon class="cls-1" points="432.79 107.6 432.79 119.15 431.63 119.15 431.63 109.91 427.09 117.68 426.52 117.68 421.98 109.97 421.98 119.15 420.8 119.15 420.8 107.6 421.81 107.6 426.82 116.15 431.79 107.6 432.79 107.6"/>
  </g>
  <path class="cls-1" d="M319.33,77.72c-.22.03-.35.14-.52.15-.13,0-.26.03-.39.05-.16.11-.32.22-.48.33-.13.04-.25.07-.37.11-.09.03-.18.05-.27.01-.09-.04-.19-.07-.28-.07-.27,0-.48-.17-.73-.25-.1-.08-.21-.15-.31-.23-.27-.24-.32-.31-.49-.71-.03-.06-.05-.12-.08-.19-.02-.31-.04-.63-.06-.97-.13-.25-.15-.54-.18-.83-.08-.18-.17-.35-.18-.55,0-.13-.04-.25-.1-.37-.04-.09-.07-.18-.09-.27-.03-.2-.17-.35-.22-.54-.13-.19-.26-.37-.38-.56-.07-.11-.16-.2-.25-.29-.13-.14-.27-.28-.4-.42-.13-.14-.26-.29-.33-.47-.01-.03-.03-.06-.05-.08-.16-.21-.3-.42-.42-.65-.26-.24-.3-.56-.3-.89,0-.26,0-.52,0-.78,0-.29,0-.58,0-.83-.05-.24-.16-.4-.16-.61,0-.26-.04-.52-.18-.74-.02-.27-.16-.49-.25-.73-.06-.15-.15-.29-.18-.45-.01-.06-.05-.12-.08-.17-.1-.17-.23-.31-.32-.49-.09-.17-.23-.31-.32-.48-.16-.28-.29-.58-.45-.86-.14-.25-.26-.51-.43-.75-.2-.29-.33-.63-.49-.94-.01-.03-.02-.06-.02-.09-.02-.17-.09-.31-.17-.48-.02-.2-.04-.43-.06-.65-.03-.09-.07-.18-.1-.27-.05-.68-.05-.76-.02-1.64.06-.16.1-.31.17-.46.07-.15.19-.27.36-.3.2-.03.37-.1.56-.19.15-.02.31-.04.46-.06.25-.11.48-.21.72-.31.22-.02.45-.04.65-.06.1-.05.19-.09.3-.14.08-.01.17-.03.27-.04.06,0,.13-.01.19-.02.03,0,.07-.01.09-.03.19-.13.44-.11.63-.23.19-.11.41-.18.58-.34.11-.11.25-.19.37-.28.09-.16.16-.3.24-.44.04-.39.02-.78,0-1.08-.03-.22-.13-.31-.17-.43-.05-.12-.1-.24-.19-.33-.16-.17-.25-.37-.34-.58-.04-.09-.04-.19.02-.28.02-.03.03-.06.04-.09.09-.17.06-.38.17-.55.09-.13.15-.29.22-.43.04-.09.04-.18,0-.28-.07-.14-.14-.29-.22-.43-.05-.1-.21-.14-.33-.09-.15.07-.29.13-.45.2-.05-.01-.1-.05-.15-.09-.08-.08-.08-.15,0-.24.13-.15.27-.28.37-.44.15-.25.28-.51.39-.78.04-.09.03-.19-.02-.28-.06-.11-.12-.23-.18-.33-.09-.05-.17-.11-.25-.15-.08-.05-.17-.09-.25-.14-.2-.11-.38-.24-.52-.43-.05-.07-.06-.21,0-.27.04-.05.07-.11.12-.15.16-.16.33-.31.49-.47.22-.2.31-.49.45-.74.03-.05.04-.13.04-.19,0-.2.05-.38.14-.56-.04-.09-.09-.17-.12-.26-.04-.13-.12-.23-.21-.32-.1-.09-.19-.18-.3-.24-.11-.06-.22-.13-.34-.19-.29-.14-.58-.28-.87-.41-.09-.04-.19-.04-.28-.06-.13-.09-.26-.19-.4-.27-.11-.07-.24-.1-.34-.17-.14-.09-.3-.13-.42-.24-.21-.2-.48-.33-.69-.52-.27-.25-.47-.53-.61-.86-.03-.13-.02-.26-.1-.37-.09-.13-.11-.3-.19-.44-.06-.12-.09-.24-.1-.37,0-.2-.09-.38-.18-.55-.02-.16-.04-.32-.06-.47-.12-.24-.24-.47-.35-.7-.03-.06-.05-.12-.09-.17-.08-.1-.16-.2-.24-.3-.08-.1-.17-.2-.23-.31-.06-.12-.14-.22-.22-.32-.23-.27-.5-.5-.67-.82-.22-.23-.42-.49-.71-.65-.11-.06-.2-.16-.3-.24-.1-.08-.2-.16-.3-.25-.03-.02-.05-.04-.08-.05-.22-.07-.37-.25-.56-.37-.11-.07-.23-.13-.34-.18-.17-.09-.34-.18-.52-.26-.24-.1-.41-.32-.65-.41-.1-.09-.19-.17-.28-.26-.05-.04-.09-.1-.13-.14-.49-.46-.74-.62-1.45-.93-.12-.05-.24-.1-.36-.16-.22-.02-.44-.04-.64-.06-.12-.05-.21-.09-.3-.13-1.25-.12-2.51-.04-3.77-.01-.3.19-.64.13-.95.19-.12.05-.24.1-.36.15-.16.02-.32.03-.48.05-.09.04-.18.08-.29.14-.1.01-.23.03-.36.05-.06,0-.13.02-.19.05-.15.07-.3.12-.46.13-.13,0-.26.03-.37.1-.11.07-.24.09-.37.1-.06,0-.13.02-.18.05-.14.08-.29.13-.45.16-.16.03-.28.15-.45.17-.03,0-.07,0-.09.02-.24.1-.46.23-.71.31-.21.07-.42.14-.63.24-.44.21-.82.41-1.19.64-.05.03-.1.08-.16.11-.21.08-.41.2-.59.33-.21.15-.4.33-.58.52-.25.25-.5.51-.68.81-.01.02-.05.03-.07.04-.22-.07-.34-.29-.56-.37-.12-.11-.24-.22-.35-.34-.15-.17-.26-.37-.42-.53-.14-.14-.26-.29-.4-.44-.14-.27-.3-.56-.44-.84-.07-.15-.15-.29-.26-.4-.13-.14-.27-.28-.41-.42-.11-.11-.23-.22-.39-.29q-.58-.4-1.16-.69c-.11-.06-.23-.11-.34-.18-.19-.12-.38-.24-.56-.38-.13-.1-.22-.24-.23-.41,0-.13-.02-.26-.01-.39,0-.26.03-.52.04-.78,0-.23,0-.45-.05-.67-.11-.24-.31-.41-.47-.62-.07-.09-.08-.2-.02-.26.04-.05.09-.09.14-.14.16-.16.3-.34.39-.55.07-.18.17-.35.27-.51.11-.19.21-.4.37-.56.24-.23.36-.53.49-.83q.05-.64,0-1.36c-.07-.21-.17-.42-.18-.65,0-.06-.01-.13-.04-.19-.09-.21-.2-.41-.28-.62-.08-.21-.12-.43-.23-.63q-.04-.57.02-1.08c.2-.27.36-.59.58-.87.08-.1.13-.22.19-.34.16-.32.33-.62.49-.94.14-.29.29-.58.43-.86.1-.2.2-.4.31-.6.2-.37.27-.5.49-.71.18-.18.38-.36.57-.53.05-.04.1-.08.16-.11.24-.1.4-.33.65-.41.19-.13.41-.2.59-.34.18-.14.39-.23.59-.34.2-.11.41-.19.61-.3.18-.09.32-.22.46-.39.06-.15.14-.33.22-.52.02-.41.03-.83.05-1.24.04-.1.09-.19.12-.28.17-.53.23-.67.44-1.06.05-.08.1-.17.16-.24.18-.23.39-.44.63-.64.09-.04.21-.1.33-.16.12-.06.23-.12.35-.18.2-.16.4-.32.6-.48.22-.08.36-.28.56-.38.24-.11.42-.31.67-.41.37-.06.76-.06,1.15-.05.42.01.84.03,1.26.04.2,0,.39-.02.56-.13.03-.02.06-.04.09-.04.23-.02.43-.14.64-.22.21-.08.4-.21.64-.22.17-.09.35-.16.54-.2.16-.03.28-.15.44-.18.19-.14.43-.14.63-.24.2-.1.43-.15.62-.28.27,0,.48-.19.74-.22.16-.02.3-.11.45-.17.16-.02.32-.05.47-.07.1-.04.19-.08.3-.13,1.56-.01,3.15.02,4.69-.04.22-.07.38-.18.59-.19.16,0,.31-.06.46-.12.15-.06.31-.05.47.01.09.04.17.09.27.09.17.01.31.09.43.2.12.11.23.23.34.34.04.05.09.1.11.16.13.26.25.52.37.79.04.09.05.19.06.28.01.16.06.32.13.46-.03.06-.06.11-.09.17-.03.06-.09.1-.15.11-.13.03-.26.03-.38.07-.12.04-.24.1-.35.16-.08.05-.14.13-.14.24,0,.1,0,.19.06.28.09.14.21.24.35.37.18.08.39.17.59.27.17.09.34.19.51.28.35.3.76.48,1.17.67.16.01.32.03.48.04.18.07.35.16.55.17.1,0,.19.02.28.06.35.17.72.29,1.04.5.05.04.12.06.17.1.35.3.77.46,1.17.67.25.05.52.04.77.18.47.04.95.11,1.43.02.06-.03.12-.06.17-.1.1-.08.2-.17.29-.26.23-.22.47-.45.7-.67.02-.02.05-.05.08-.06.24-.11.42-.3.62-.47.18-.15.4-.21.59-.33.05-.03.12-.03.19-.04.29-.03.58-.02.87.03.23.13.48.19.7.32.03.02.06.02.09.02.16.02.3.11.45.17.12.05.25.05.37.09.09.03.18.07.26.11.33.04.65.02.98.02.55,0,1.1,0,1.65,0,.26,0,.52.02.78.03.17,0,.31.09.42.21.06.06.06.2.01.27-.12.16-.25.31-.41.41-.2.12-.37.26-.54.41-.12.11-.25.19-.39.28-.22.14-.4.33-.57.52-.08.09-.09.16-.02.25.12.15.29.19.42.09.1-.08.2-.16.3-.25.21-.21.41-.41.61-.63.22-.25.49-.42.78-.57.09-.04.18-.08.26-.12.09-.04.17-.1.27-.1.26-.02.47-.2.74-.2.2,0,.38-.06.52-.15.23-.02.42-.05.62-.03.1,0,.15.09.11.19-.1.24-.23.46-.33.7-.09.21-.19.41-.3.63-.02.15-.05.3-.07.46-.04.09-.08.18-.12.26q-.07.52-.2.86c-.05.77-.03,1.54-.01,2.34.04.1.08.22.13.36.02.34.05.69.07,1.03.04.1.08.19.13.31.02.19.04.42.06.65.04.12.09.24.14.37.01.25.03.51.04.77.07.14.14.28.21.43.05.04.08.1.14.13.25.15.46.36.73.48.06.02.1.08.14.13.06.07.11.16.12.26.04.29.01.58-.01.86-.27.7-.64,1.35-.97,2-.06.11-.14.22-.22.32-.11.13-.15.29-.24.42-.08.1-.17.2-.23.31-.15.28-.3.57-.44.86-.06.12-.11.23-.17.36-.04.34-.06.7-.02,1.06.06.11.12.22.18.34.03.06.06.12.12.15.2.09.37.26.62.26.13,0,.24.1.36.13.16.02.32.04.48.06.07,0,.16.13.17.21.02.13,0,.26-.01.4-.04.07-.1.16-.13.24-.06.15-.15.28-.26.4-.11.12-.21.24-.32.36-.04.05-.06.11-.06.18-.01.16,0,.32.03.48.01.06.04.12.06.18.03.06.07.11.09.17.05.16.14.29.26.41q.21.22.69.53c-.15.17-.31.33-.45.51-.04.05-.07.11-.08.17-.05.39-.04.77,0,1.16,0,.06.03.13.07.18.08.1.17.2.26.29.07.07.16.12.26.12.26,0,.52,0,.75,0,.32.13.6.29.87.46.06.04.08.1.09.17.02.1.01.19.01.29-.01.49-.01.97.02,1.44.07.19.18.36.2.56,0,.06.05.12.09.17.15.17.29.36.51.43.15.12.35.17.51.27.11.07.24.1.37.11.07,0,.13.02.18.05.11.06.23.11.37.11.49.02.97.03,1.44,0,.2-.07.37-.17.57-.18.13,0,.24-.1.35-.15.3,0,.53-.23.83-.24.21-.08.41-.19.64-.21.17-.09.35-.17.55-.18.23-.12.48-.18.74-.21.06,0,.12-.04.18-.07.15-.08.31-.08.46-.13.12-.04.23-.12.36-.14.1-.02.19-.03.28-.06.09-.03.18-.08.27-.12.12-.01.25-.03.38-.03.2,0,.38-.08.59-.15.13,0,.3.01.46.02.25.15.58.1.82.28.12.04.26.06.36.13.16.1.31.23.46.36.22.19.44.38.61.63.03.05.02.12.02.18,0,.03-.03.06-.05.08-.23.27-.5.51-.78.73-.2.1-.38.24-.61.29-.32.08-.6.22-.86.41-.29.21-.57.42-.82.67-.31.33-.64.64-.95.97-.16.16-.33.31-.42.53-.15.17-.3.34-.45.51-.19.22-.41.41-.55.68-.06.11-.16.2-.25.3-.18.22-.4.42-.53.69-.29.35-.59.68-.93.99-.1.09-.2.16-.29.26-.15.17-.28.36-.28.6,0,.06-.01.13-.01.19,0,.16-.05.32-.11.47-.04.09-.03.19.01.28.04.09.08.18.08.28,0,.1.02.19.04.29.04.22.18.41.17.65,0,.19.01.39.02.58,0,.06.01.13.02.2.04.12.09.24.13.36,0,.33.13.63.32.95.15.15.33.34.51.52.09.09.17.19.25.29.06.08.1.16.11.26,0,.03,0,.06.01.1.04.33,0,.65-.18.94-.05.42,0,.84,0,1.24.07.2.14.37.14.57,0,.26,0,.52,0,.76-.14.25-.16.51-.2.79-.11.24-.23.51-.36.76-.14.29-.29.58-.5.83-.08.1-.13.22-.21.32-.12.15-.26.29-.44.37-.21.09-.39.23-.63.25-.41.2-.82.38-1.21.59-.23.12-.42.29-.64.43-.16.1-.3.25-.4.42-.08.14-.17.28-.28.39-.32.33-.5.75-.69,1.16-.01.03,0,.06,0,.1,0,.03,0,.07.01.09.14.26.13.57.3.82.02.16.05.32.07.47.05.12.13.23.14.36.01.2.1.37.17.55.03.26.06.51.04.77,0,.06-.02.13-.07.18-.21.25-.44.47-.74.61-.37.19-.74.39-1.12.56-.18.08-.33.19-.51.28-.11.12-.16.28-.22.42-.02.05-.03.13,0,.19.08.18.12.37.14.56,0,.09.04.19.07.28.04.09.05.18,0,.27-.04.09-.06.18-.08.28-.02.1-.07.18-.13.26-.22.28-.47.53-.72.78-.34.34-.69.68-1.03,1.03-.18.18-.38.36-.49.59-.03.06-.08.1-.12.15-.62.66-1.24,1.32-1.9,1.94-.31.29-.68.48-1.02.73-.09.07-1.04.54-1.13.56-.22.05-.43.12-.64.2-.09.03-.19.03-.29.03-.32,0-.65,0-.97,0-.45,0-.91,0-1.36,0-.23,0-.45.01-.62.02Z"/>
  <g>
    <g>
      <polygon class="cls-1" points="83.94 96.85 75.63 96.85 75.59 73.89 64.32 92.81 60.33 92.81 49.12 74.39 49.12 96.85 40.82 96.85 40.82 58.59 48.14 58.59 62.47 82.34 76.56 58.59 83.83 58.59 83.94 96.85"/>
      <path class="cls-1" d="M113.23,58.59h-8.75l-17.05,38.26h9.07l3.41-8.2h17.73l3.4,8.2h9.3l-17.11-38.26ZM102.71,81.93l6.09-14.64,6.06,14.64h-12.16Z"/>
      <path class="cls-1" d="M159.12,84.59s.05-.02.08-.03c2.47-1.09,4.39-2.67,5.74-4.73,1.35-2.06,2.02-4.51,2.02-7.35,0-4.33-1.47-7.73-4.42-10.19s-7.08-3.69-12.4-3.69h-16.34v38.26h8.85v-10.66h7.7c.14,0,.28,0,.42,0l7.35,10.66h9.56l-8.55-12.27ZM155.97,77.37c-1.35,1.18-3.39,1.78-6.12,1.78h-7.21v-13.34h7.21c2.74,0,4.78.59,6.12,1.75,1.35,1.17,2.02,2.81,2.02,4.92s-.67,3.71-2.02,4.9Z"/>
      <path class="cls-1" d="M173.4,96.85v-38.26h8.85v38.26h-8.85Z"/>
      <path class="cls-1" d="M211.55,58.59h-8.75l-17.05,38.26h9.07l3.41-8.2h17.73l3.39,8.2h9.3l-17.11-38.26ZM201.03,81.93l6.09-14.64,6.06,14.64h-12.16Z"/>
      <path class="cls-1" d="M257.4,77.12h8.09v15.52c-2.08,1.57-4.49,2.77-7.25,3.6-2.75.84-5.49,1.26-8.22,1.26-3.02,0-5.8-.49-8.34-1.45-2.53-.97-4.73-2.34-6.61-4.13-1.88-1.79-3.33-3.88-4.37-6.29-1.04-2.4-1.56-5.04-1.56-7.92s.52-5.52,1.56-7.93c1.04-2.41,2.51-4.5,4.4-6.29,1.89-1.78,4.11-3.16,6.67-4.12,2.54-.97,5.35-1.45,8.41-1.45,3.39,0,6.44.56,9.16,1.69,2.71,1.13,5,2.77,6.86,4.92l-5.68,5.24c-1.38-1.45-2.9-2.54-4.54-3.25-1.64-.71-3.43-1.07-5.35-1.07s-3.56.29-5.09.87c-1.53.58-2.85,1.42-3.96,2.51-1.11,1.09-1.96,2.39-2.57,3.88-.6,1.49-.9,3.15-.9,4.97s.3,3.43.9,4.92c.6,1.49,1.45,2.79,2.57,3.91,1.11,1.11,2.42,1.96,3.94,2.54,1.51.58,3.18.87,5,.87s3.46-.29,5.11-.85c.6-.2,1.19-.46,1.78-.77v-11.23Z"/>
      <polygon class="cls-1" points="302.76 89.75 302.76 96.85 273.14 96.85 273.14 58.59 302.05 58.59 302.05 65.7 281.94 65.7 281.94 74.01 299.71 74.01 299.71 80.9 281.94 80.9 281.94 89.75 302.76 89.75"/>
    </g>
    <g>
      <path class="cls-1" d="M345.81,58.59h-2.78l-17.6,38.26h3.01l4.88-10.77h22.2l4.9,10.77h3.01l-17.6-38.26ZM334.38,83.74l10.02-22.06,10.04,22.06h-20.05Z"/>
      <polygon class="cls-1" points="372.59 61.11 372.59 77.46 392.97 77.46 392.97 79.97 372.59 79.97 372.59 96.85 369.8 96.85 369.8 58.59 395.38 58.59 395.38 61.11 372.59 61.11"/>
      <path class="cls-1" d="M423.88,83.47c.64-.19,1.25-.43,1.83-.69,2.3-1.04,4.06-2.52,5.31-4.43,1.24-1.91,1.86-4.2,1.86-6.86,0-4.08-1.37-7.25-4.1-9.5-2.74-2.27-6.5-3.4-11.31-3.4h-13.72v38.26h2.79v-12.51h10.93c1.31,0,2.54-.09,3.69-.26l9.16,12.78h3.17l-9.6-13.38ZM406.53,83.19l-.08-.08.08-.09v.16ZM406.53,81.88v-20.77h10.93c4.11,0,7.24.9,9.37,2.71,2.13,1.8,3.19,4.37,3.19,7.68s-1.06,5.83-3.19,7.66c-2.13,1.82-5.26,2.73-9.37,2.73h-10.93Z"/>
      <path class="cls-1" d="M458.77,97.13c-2.84,0-5.47-.48-7.9-1.45-2.42-.97-4.54-2.33-6.34-4.1-1.8-1.77-3.2-3.83-4.18-6.18-.98-2.35-1.48-4.91-1.48-7.68s.49-5.33,1.48-7.68c.98-2.35,2.38-4.41,4.18-6.18,1.8-1.77,3.92-3.13,6.34-4.1,2.42-.97,5.06-1.45,7.9-1.45s5.47.48,7.9,1.45c2.42.97,4.53,2.32,6.31,4.07,1.78,1.75,3.18,3.8,4.18,6.15,1,2.35,1.5,4.93,1.5,7.73s-.5,5.38-1.5,7.73c-1,2.35-2.4,4.4-4.18,6.15-1.79,1.75-3.89,3.11-6.31,4.07-2.42.97-5.06,1.45-7.9,1.45ZM458.77,94.56c2.44,0,4.7-.42,6.78-1.26,2.08-.84,3.88-2.02,5.41-3.55,1.53-1.53,2.72-3.32,3.58-5.36.86-2.04,1.28-4.26,1.28-6.67s-.43-4.67-1.28-6.69c-.86-2.02-2.05-3.8-3.58-5.33s-3.33-2.71-5.41-3.55c-2.08-.84-4.34-1.26-6.78-1.26s-4.7.42-6.78,1.26c-2.08.84-3.89,2.02-5.44,3.55-1.55,1.53-2.75,3.31-3.61,5.33-.86,2.02-1.28,4.25-1.28,6.69s.43,4.63,1.28,6.67c.86,2.04,2.06,3.83,3.61,5.36,1.55,1.53,3.36,2.71,5.44,3.55,2.08.84,4.34,1.26,6.78,1.26Z"/>
    </g>
  </g>
  <g>
    <polyline class="cls-1" points="443.75 112.27 497.65 112.28 497.65 47.18 346.4 47.18 346.4 45.66 499.1 45.66 499.1 113.8 443.75 113.79"/>
    <polygon class="cls-1" points="80.45 113.77 20.39 113.78 20.39 45.68 303.79 45.68 303.79 47.16 21.81 47.16 21.81 112.3 80.45 112.29 80.45 113.77"/>
  </g>
</svg>